<svg xmlns="http://www.w3.org/2000/svg" width="24" height="24" viewBox="0 0 24 24" fill="none">
  <path d="M17.259 10.3978C17.3195 10.3956 17.3798 10.4063 17.4363 10.4291C17.4928 10.4519 17.5444 10.4864 17.588 10.5305C17.6315 10.5747 17.6661 10.6276 17.6898 10.6861C17.7134 10.7447 17.7256 10.8076 17.7256 10.8711C17.7256 10.9347 17.7134 10.9976 17.6898 11.0561C17.6661 11.1147 17.6315 11.1676 17.588 11.2117C17.5444 11.2559 17.4928 11.2904 17.4363 11.3132C17.3798 11.336 17.3195 11.3466 17.259 11.3444H16.006V12.1881H17.259C17.3199 12.185 17.3807 12.1949 17.4378 12.2172C17.495 12.2395 17.5472 12.2738 17.5913 12.3179C17.6354 12.362 17.6706 12.4151 17.6946 12.4739C17.7186 12.5327 17.731 12.596 17.731 12.66C17.731 12.724 17.7186 12.7873 17.6946 12.8461C17.6706 12.905 17.6354 12.958 17.5913 13.0022C17.5472 13.0463 17.495 13.0805 17.4378 13.1028C17.3807 13.1252 17.3199 13.135 17.259 13.1319H15.557C15.4381 13.1315 15.3241 13.0816 15.2401 12.9931C15.156 12.9047 15.1088 12.7849 15.1086 12.66V9.08282C15.1086 8.8224 15.3095 8.60867 15.557 8.60867H17.2622C17.3779 8.61494 17.4868 8.6677 17.5665 8.75601C17.6461 8.84432 17.6904 8.96142 17.69 9.08303C17.6897 9.20465 17.6448 9.32146 17.5646 9.40927C17.4845 9.49709 17.3753 9.54916 17.2595 9.55472H16.0065V10.3984L17.259 10.3978ZM14.5086 12.6595C14.5077 12.7847 14.4596 12.9045 14.3749 12.9928C14.2903 13.0811 14.1758 13.1307 14.0565 13.1308C13.9859 13.1315 13.916 13.115 13.8525 13.0825C13.789 13.05 13.7336 13.0024 13.6906 12.9435L11.9469 10.4535V12.6589C11.9469 12.7841 11.8995 12.9041 11.8152 12.9926C11.7309 13.0811 11.6166 13.1308 11.4974 13.1308C11.3782 13.1308 11.2639 13.0811 11.1796 12.9926C11.0953 12.9041 11.0479 12.7841 11.0479 12.6589V9.08169C11.0479 8.87977 11.1738 8.69866 11.3549 8.63398C11.3996 8.6174 11.4468 8.60921 11.4942 8.60979C11.6335 8.60979 11.762 8.6891 11.8483 8.80047L13.606 11.2961V9.08169C13.606 8.82128 13.8069 8.60754 14.0554 8.60754C14.304 8.60754 14.5076 8.82128 14.5076 9.08169L14.5086 12.6595ZM10.4072 12.6595C10.4067 12.7849 10.3587 12.905 10.274 12.9935C10.1893 13.0819 10.0746 13.1315 9.95507 13.1314C9.83647 13.1303 9.72305 13.0802 9.63949 12.9918C9.55592 12.9034 9.50896 12.784 9.50882 12.6595V9.08226C9.50882 8.82184 9.70972 8.60811 9.95829 8.60811C10.2063 8.60811 10.4078 8.82184 10.4078 9.08226L10.4072 12.6595ZM8.64632 13.1314H6.94115C6.82178 13.1311 6.70734 13.0813 6.62268 12.993C6.53803 12.9046 6.48999 12.7848 6.489 12.6595V9.08226C6.489 8.82184 6.69257 8.60811 6.94115 8.60811C7.18972 8.60811 7.39061 8.82184 7.39061 9.08226V12.1876H8.64632C8.76553 12.1876 8.87985 12.2373 8.96414 12.3258C9.04843 12.4143 9.09579 12.5343 9.09579 12.6595C9.09579 12.7846 9.04843 12.9046 8.96414 12.9931C8.87985 13.0816 8.76553 13.1314 8.64632 13.1314ZM20.5713 10.7342C20.5713 6.70645 16.7233 3.42847 11.9999 3.42847C7.2765 3.42847 3.42847 6.70645 3.42847 10.7342C3.42847 14.3435 6.47829 17.3666 10.5963 17.9409C10.8754 18.0022 11.2547 18.1344 11.3528 18.3836C11.439 18.6085 11.4085 18.9573 11.3806 19.1952L11.2633 19.9596C11.2295 20.1851 11.0903 20.8477 12.0111 20.4433C12.9347 20.0389 16.9526 17.3852 18.752 15.2108C19.9826 13.7962 20.5713 12.3428 20.5713 10.7342Z" fill="#212121"/>
</svg>