<svg xmlns="http://www.w3.org/2000/svg" width="22" height="22" viewBox="0 0 22 22" fill="none">
  <path d="M4.56768 6.59727C5.67538 6.59727 6.57335 5.6993 6.57335 4.5916C6.57335 3.4839 5.67538 2.58594 4.56768 2.58594C3.45998 2.58594 2.56201 3.4839 2.56201 4.5916C2.56201 5.6993 3.45998 6.59727 4.56768 6.59727Z" fill="#212121"/>
  <path d="M8.46733 8.11704V19.2445H11.9222V13.7417C11.9222 12.2897 12.1954 10.8835 13.9957 10.8835C15.7713 10.8835 15.7933 12.5436 15.7933 13.8334V19.2454H19.2501V13.1431C19.2501 10.1456 18.6047 7.84204 15.1012 7.84204C13.4192 7.84204 12.2917 8.76512 11.8306 9.63871H11.7838V8.11704H8.46733ZM2.83716 8.11704H6.29757V19.2445H2.83716V8.11704Z" fill="#212121"/>
</svg>