<svg xmlns="http://www.w3.org/2000/svg" width="22" height="22" viewBox="0 0 22 22" fill="none">
  <path d="M17.9574 6.13242C17.0436 5.93148 16.217 5.44623 15.5961 4.74632C14.9753 4.04641 14.5921 3.1678 14.5016 2.23659V1.83325H11.3391V14.3641C11.3397 14.9201 11.1654 15.4622 10.8408 15.9137C10.5162 16.3651 10.0578 16.703 9.53053 16.8794C9.00325 17.0558 8.43382 17.0619 7.90291 16.8967C7.372 16.7315 6.90651 16.4035 6.57239 15.9591C6.27305 15.5657 6.08975 15.0964 6.04322 14.6042C5.9967 14.1121 6.08879 13.6168 6.3091 13.1742C6.52941 12.7317 6.86914 12.3597 7.28988 12.1002C7.71061 11.8406 8.19556 11.704 8.68989 11.7058C8.96328 11.7042 9.2353 11.7444 9.49656 11.8249V8.61658C9.19253 8.57893 8.88615 8.56362 8.57989 8.57075C7.45176 8.6009 6.3569 8.95936 5.42938 9.60225C4.50187 10.2451 3.78195 11.1445 3.3578 12.1903C2.93365 13.2361 2.82366 14.3829 3.04131 15.4903C3.25896 16.5976 3.79481 17.6175 4.58322 18.4249C5.39125 19.2464 6.42526 19.8092 7.55386 20.0417C8.68246 20.2743 9.85471 20.166 10.9217 19.7308C11.9886 19.2956 12.9021 18.553 13.546 17.5974C14.19 16.6418 14.5354 15.5164 14.5382 14.3641V7.94742C15.8137 8.85854 17.3432 9.34593 18.9107 9.34075V6.22408C18.6028 6.22536 18.2956 6.19463 17.9941 6.13242H17.9574Z" fill="#212121"/>
</svg>